<?xml version="1.0" encoding="UTF-8" standalone="no"?>
<!-- Created with Inkscape (http://www.inkscape.org/) -->

<svg
   width="377.96735"
   height="224.25911"
   viewBox="0 0 377.96735 224.25911"
   version="1.1"
   id="svg5"
   xml:space="preserve"
   inkscape:version="1.2.2 (732a01da63, 2022-12-09)"
   sodipodi:docname="introduction.svg"
   xmlns:inkscape="http://www.inkscape.org/namespaces/inkscape"
   xmlns:sodipodi="http://sodipodi.sourceforge.net/DTD/sodipodi-0.dtd"
   xmlns="http://www.w3.org/2000/svg"
   xmlns:svg="http://www.w3.org/2000/svg"><sodipodi:namedview
     id="namedview7"
     pagecolor="#ffffff"
     bordercolor="#000000"
     borderopacity="0.25"
     inkscape:showpageshadow="2"
     inkscape:pageopacity="0.0"
     inkscape:pagecheckerboard="true"
     inkscape:deskcolor="#d1d1d1"
     inkscape:document-units="px"
     showgrid="false"
     inkscape:zoom="2.8237469"
     inkscape:cx="177.6009"
     inkscape:cy="156.35254"
     inkscape:window-width="1683"
     inkscape:window-height="1230"
     inkscape:window-x="4974"
     inkscape:window-y="1567"
     inkscape:window-maximized="0"
     inkscape:current-layer="layer1" /><defs
     id="defs2"><marker
       style="overflow:visible"
       id="marker13718"
       refX="0"
       refY="0"
       orient="auto-start-reverse"
       inkscape:stockid="Arrow3"
       markerWidth="4.2071066"
       markerHeight="7"
       viewBox="0 0 4.2071068 7"
       inkscape:isstock="true"
       inkscape:collect="always"
       preserveAspectRatio="xMidYMid"><path
         style="fill:none;stroke:context-stroke;stroke-width:1;stroke-linecap:round"
         d="M 3,-3 0,0 3,3"
         id="path13716"
         transform="rotate(180,0.125,0)"
         sodipodi:nodetypes="ccc" /></marker><marker
       style="overflow:visible"
       id="marker13564"
       refX="0"
       refY="0"
       orient="auto-start-reverse"
       inkscape:stockid="Arrow3"
       markerWidth="4.2071066"
       markerHeight="6.9999995"
       viewBox="0 0 4.2071068 7"
       inkscape:isstock="true"
       inkscape:collect="always"
       preserveAspectRatio="xMidYMid"><path
         style="fill:none;stroke:context-stroke;stroke-width:1;stroke-linecap:round"
         d="M 3,-3 0,0 3,3"
         id="path13562"
         transform="rotate(180,0.125,0)"
         sodipodi:nodetypes="ccc" /></marker><marker
       style="overflow:visible"
       id="Arrow3"
       refX="0"
       refY="0"
       orient="auto-start-reverse"
       inkscape:stockid="Arrow3"
       markerWidth="4.2071066"
       markerHeight="7"
       viewBox="0 0 4.2071068 7"
       inkscape:isstock="true"
       inkscape:collect="always"
       preserveAspectRatio="xMidYMid"><path
         style="fill:none;stroke:context-stroke;stroke-width:1;stroke-linecap:round"
         d="M 3,-3 0,0 3,3"
         id="arrow3"
         transform="rotate(180,0.125,0)"
         sodipodi:nodetypes="ccc" /></marker><marker
       style="overflow:visible"
       id="marker13718-6"
       refX="0"
       refY="0"
       orient="auto-start-reverse"
       inkscape:stockid="Arrow3"
       markerWidth="4.2071066"
       markerHeight="7"
       viewBox="0 0 4.2071068 7"
       inkscape:isstock="true"
       inkscape:collect="always"
       preserveAspectRatio="xMidYMid"><path
         style="fill:none;stroke:context-stroke;stroke-width:1;stroke-linecap:round"
         d="M 3,-3 0,0 3,3"
         id="path13716-1"
         transform="rotate(180,0.125,0)"
         sodipodi:nodetypes="ccc" /></marker></defs><g
     inkscape:label="Layer 1"
     inkscape:groupmode="layer"
     id="layer1"
     transform="translate(-44.227127,-41.892889)"><g
       style="clip-rule:evenodd;fill-rule:evenodd;image-rendering:optimizeQuality;shape-rendering:geometricPrecision;text-rendering:geometricPrecision"
       id="g2538"
       transform="matrix(0.00734771,0,0,0.00734771,187.11214,42.903183)"><polygon
         fill="#008bc2"
         points="670,2500 5000,5000 5000,10000 670,7500 "
         id="polygon2519" /><polygon
         fill="#056489"
         points="670,2500 5000,0 9330,2500 5000,5000 "
         id="polygon2521" /><polygon
         fill="#09506c"
         points="5000,10000 5000,5000 9330,2500 9330,7500 "
         id="polygon2523" /><polygon
         fill="#f6bd14"
         points="7830,5000 3500,2500 3500,7500 "
         id="polygon2525" /></g><g
       style="fill:#eeeeee;fill-opacity:1"
       id="g4893"
       transform="matrix(4.7265146,0,0,4.7265146,44.227127,178.97375)"><path
         d="M 8,0 C 3.58,0 0,3.58 0,8 c 0,3.54 2.29,6.53 5.47,7.59 0.4,0.07 0.55,-0.17 0.55,-0.38 0,-0.19 -0.01,-0.82 -0.01,-1.49 C 4,14.09 3.48,13.23 3.32,12.78 3.23,12.55 2.84,11.84 2.5,11.65 2.22,11.5 1.82,11.13 2.49,11.12 3.12,11.11 3.57,11.7 3.72,11.94 4.44,13.15 5.59,12.81 6.05,12.6 6.12,12.08 6.33,11.73 6.56,11.53 4.78,11.33 2.92,10.64 2.92,7.58 2.92,6.71 3.23,5.99 3.74,5.43 3.66,5.23 3.38,4.41 3.82,3.31 c 0,0 0.67,-0.21 2.2,0.82 0.64,-0.18 1.32,-0.27 2,-0.27 0.68,0 1.36,0.09 2,0.27 1.53,-1.04 2.2,-0.82 2.2,-0.82 0.44,1.1 0.16,1.92 0.08,2.12 0.51,0.56 0.82,1.27 0.82,2.15 0,3.07 -1.87,3.75 -3.65,3.95 0.29,0.25 0.54,0.73 0.54,1.48 0,1.07 -0.01,1.93 -0.01,2.2 0,0.21 0.15,0.46 0.55,0.38 A 8.01,8.01 0 0 0 16,8 C 16,3.58 12.42,0 8,0"
         id="path4884"
         style="fill:#eeeeee;fill-opacity:1" /></g><rect
       style="fill:#effac6;fill-opacity:1;stroke:#7d5919;stroke-width:2.443;stroke-dasharray:2.443, 2.443;stroke-dashoffset:0;stroke-opacity:1;paint-order:markers stroke fill"
       id="rect5310"
       width="86.696342"
       height="108.7328"
       x="334.27667"
       y="150.96342" /><g
       style="fill:#7d5919;fill-opacity:1"
       id="g10637"
       transform="matrix(3.4498872,0,0,3.4498872,357.79768,193.5998)"><path
         d="M 5,7 H 8 V 4 H 5 Z"
         id="path10625"
         style="fill:#7d5919;fill-opacity:1" /><path
         d="M 1,2 A 2,2 0 0 1 3,0 h 11 a 2,2 0 0 1 2,2 v 11 a 2,2 0 0 1 -2,2 H 3 A 2,2 0 0 1 1,13 V 11 H 0.5 A 0.5,0.5 0 0 1 0,10.5 v -1 A 0.5,0.5 0 0 1 0.5,9 H 1 V 8 H 0.5 A 0.5,0.5 0 0 1 0,7.5 v -1 A 0.5,0.5 0 0 1 0.5,6 H 1 V 5 H 0.5 A 0.5,0.5 0 0 1 0,4.5 v -2 A 0.5,0.5 0 0 1 0.5,2 Z m 11,0.5 a 0.5,0.5 0 0 0 -1,0 v 7 a 0.5,0.5 0 0 0 1,0 z m 2,0 a 0.5,0.5 0 0 0 -1,0 v 7 a 0.5,0.5 0 0 0 1,0 z M 3.5,10 a 0.5,0.5 0 0 0 0,1 h 6 a 0.5,0.5 0 0 0 0,-1 z m 0,2 a 0.5,0.5 0 0 0 0,1 h 6 a 0.5,0.5 0 0 0 0,-1 z M 4,4 H 3.5 a 0.5,0.5 0 0 0 0,1 H 4 V 6 H 3.5 a 0.5,0.5 0 0 0 0,1 H 4 a 1,1 0 0 0 1,1 v 0.5 a 0.5,0.5 0 0 0 1,0 V 8 h 1 v 0.5 a 0.5,0.5 0 0 0 1,0 V 8 A 1,1 0 0 0 9,7 h 0.5 a 0.5,0.5 0 0 0 0,-1 H 9 V 5 h 0.5 a 0.5,0.5 0 0 0 0,-1 H 9 A 1,1 0 0 0 8,3 V 2.5 a 0.5,0.5 0 0 0 -1,0 V 3 H 6 V 2.5 a 0.5,0.5 0 0 0 -1,0 V 3 A 1,1 0 0 0 4,4 m 7,7.5 v 1 a 0.5,0.5 0 0 0 0.5,0.5 h 2 A 0.5,0.5 0 0 0 14,12.5 v -1 A 0.5,0.5 0 0 0 13.5,11 h -2 A 0.5,0.5 0 0 0 11,11.5"
         id="path10627"
         style="fill:#7d5919;fill-opacity:1" /></g><path
       style="display:inline;fill:none;fill-rule:evenodd;stroke:#c2c2c2;stroke-width:2;stroke-linecap:butt;stroke-linejoin:miter;stroke-dasharray:none;stroke-opacity:1;marker-end:url(#Arrow3)"
       d="m 117.19392,184.30497 67.11105,-78.12928"
       id="path12518"
       inkscape:connector-type="polyline"
       inkscape:connector-curvature="0" /><path
       style="display:inline;fill:none;fill-rule:evenodd;stroke:#c2c2c2;stroke-width:2.02721;stroke-linecap:butt;stroke-linejoin:miter;stroke-dasharray:none;stroke-opacity:1;marker-start:url(#marker13718)"
       d="m 130.87467,207.2388 217.91012,-0.23433"
       id="path12518-1"
       inkscape:connector-type="polyline"
       inkscape:connector-curvature="0" /><path
       style="display:inline;fill:none;fill-rule:evenodd;stroke:#c2c2c2;stroke-width:2.01951;stroke-linecap:butt;stroke-linejoin:miter;stroke-dasharray:none;stroke-opacity:1;marker-start:url(#marker13718-6)"
       d="M 345.80988,225.6898 130.03752,225.45494"
       id="path12518-1-5"
       inkscape:connector-type="polyline"
       inkscape:connector-curvature="0" /><path
       style="display:inline;fill:none;fill-rule:evenodd;stroke:#c2c2c2;stroke-width:2.10334;stroke-linecap:butt;stroke-linejoin:miter;stroke-dasharray:none;stroke-opacity:1;marker-end:url(#marker13564)"
       d="m 260.946,103.5194 85.26421,90.63067"
       id="path12518-0"
       inkscape:connector-type="polyline"
       inkscape:connector-curvature="0" /><text
       xml:space="preserve"
       style="font-style:normal;font-variant:normal;font-weight:bold;font-stretch:normal;font-size:20px;font-family:'Segoe UI';-inkscape-font-specification:'Segoe UI Bold';fill:#f6bd14;fill-opacity:1;stroke:#515151;stroke-width:2;stroke-dasharray:none;stroke-dashoffset:0;stroke-opacity:1;paint-order:markers stroke fill"
       x="-54.18079"
       y="200.91965"
       id="text13846"
       transform="rotate(-49.704092)"><tspan
         sodipodi:role="line"
         id="tspan13844"
         x="-54.18079"
         y="200.91965">1. Notify</tspan></text><text
       xml:space="preserve"
       style="font-style:normal;font-variant:normal;font-weight:bold;font-stretch:normal;font-size:20px;font-family:'Segoe UI';-inkscape-font-specification:'Segoe UI, Bold';font-variant-ligatures:normal;font-variant-caps:normal;font-variant-numeric:normal;font-variant-east-asian:normal;fill:#f6bd14;fill-opacity:1;stroke:#515151;stroke-width:2;stroke-dasharray:none;stroke-dashoffset:0;stroke-opacity:1;paint-order:markers stroke fill"
       x="265.35886"
       y="-126.14608"
       id="text13846-9"
       transform="rotate(46.967331)"><tspan
         sodipodi:role="line"
         id="tspan14562"
         x="265.35886"
         y="-126.14608">2. Launch</tspan></text><text
       xml:space="preserve"
       style="font-style:normal;font-variant:normal;font-weight:bold;font-stretch:normal;font-size:20px;font-family:'Segoe UI';-inkscape-font-specification:'Segoe UI, Bold';font-variant-ligatures:normal;font-variant-caps:normal;font-variant-numeric:normal;font-variant-east-asian:normal;fill:#f6bd14;fill-opacity:1;stroke:#515151;stroke-width:2;stroke-dasharray:none;stroke-dashoffset:0;stroke-opacity:1;paint-order:markers stroke fill"
       x="163.46281"
       y="199.63876"
       id="text13846-9-9"><tspan
         sodipodi:role="line"
         id="tspan14560"
         x="163.46281"
         y="199.63876">3. Self-Register</tspan></text><text
       xml:space="preserve"
       style="font-style:normal;font-variant:normal;font-weight:bold;font-stretch:normal;font-size:20px;font-family:'Segoe UI';-inkscape-font-specification:'Segoe UI, Bold';font-variant-ligatures:normal;font-variant-caps:normal;font-variant-numeric:normal;font-variant-east-asian:normal;fill:#f6bd14;fill-opacity:1;stroke:#515151;stroke-width:2;stroke-dasharray:none;stroke-dashoffset:0;stroke-opacity:1;paint-order:markers stroke fill"
       x="164.91423"
       y="243.57233"
       id="text13846-9-9-3"><tspan
         sodipodi:role="line"
         id="tspan14556"
         x="164.91423"
         y="243.57233">4. Execute Job</tspan></text><g
       style="fill:#7d5919;fill-opacity:1"
       id="g21509"
       transform="matrix(1.4869417,0,0,1.4829173,394.97032,151.35547)"><path
         d="M 4.406,3.342 A 5.53,5.53 0 0 1 8,2 c 2.69,0 4.923,2 5.166,4.579 C 14.758,6.804 16,8.137 16,9.773 16,11.569 14.502,13 12.687,13 H 3.781 C 1.708,13 0,11.366 0,9.318 0,7.555 1.266,6.095 2.942,5.725 3.085,4.862 3.64,4.002 4.406,3.342"
         id="path21500"
         style="fill:#7d5919;fill-opacity:1" /></g></g><style
     type="text/css"
     id="style2517">
		polygon{stroke-width:275;stroke-linejoin:round;stroke:hsl(247, 15%, 23%)}
	</style></svg>
