<?xml version="1.0" encoding="UTF-8" standalone="no"?>
<!-- Created with Inkscape (http://www.inkscape.org/) -->

<svg
   width="832.62231"
   height="271.62234"
   viewBox="0 0 832.6223 271.62235"
   version="1.1"
   id="svg5"
   xml:space="preserve"
   inkscape:version="1.2.2 (732a01da63, 2022-12-09)"
   sodipodi:docname="introduction2.svg"
   xmlns:inkscape="http://www.inkscape.org/namespaces/inkscape"
   xmlns:sodipodi="http://sodipodi.sourceforge.net/DTD/sodipodi-0.dtd"
   xmlns:xlink="http://www.w3.org/1999/xlink"
   xmlns="http://www.w3.org/2000/svg"
   xmlns:svg="http://www.w3.org/2000/svg"><sodipodi:namedview
     id="namedview7"
     pagecolor="#ffffff"
     bordercolor="#000000"
     borderopacity="0.25"
     inkscape:showpageshadow="2"
     inkscape:pageopacity="0.0"
     inkscape:pagecheckerboard="true"
     inkscape:deskcolor="#d1d1d1"
     inkscape:document-units="px"
     showgrid="false"
     inkscape:zoom="2"
     inkscape:cx="278.75"
     inkscape:cy="151"
     inkscape:window-width="3840"
     inkscape:window-height="2137"
     inkscape:window-x="1432"
     inkscape:window-y="808"
     inkscape:window-maximized="1"
     inkscape:current-layer="layer1" /><defs
     id="defs2"><linearGradient
       id="linearGradient15502"
       inkscape:swatch="solid"><stop
         style="stop-color:#000000;stop-opacity:1;"
         offset="0"
         id="stop15500" /></linearGradient><linearGradient
       id="linearGradient15424"
       inkscape:swatch="solid"><stop
         style="stop-color:#343243;stop-opacity:1;"
         offset="0"
         id="stop15422" /></linearGradient><marker
       style="overflow:visible"
       id="Square"
       refX="0"
       refY="0"
       orient="auto"
       inkscape:stockid="Square"
       markerWidth="5.6666665"
       markerHeight="5.6666665"
       viewBox="0 0 5.6666667 5.6666667"
       inkscape:isstock="true"
       inkscape:collect="always"
       preserveAspectRatio="xMidYMid"><path
         transform="scale(0.5)"
         style="fill:context-stroke;fill-rule:evenodd;stroke:context-stroke;stroke-width:1pt"
         d="M -5,-5 V 5 H 5 V -5 Z"
         id="Squere" /></marker><linearGradient
       id="linearGradient5817"
       inkscape:swatch="solid"><stop
         style="stop-color:#343243;stop-opacity:1;"
         offset="0"
         id="stop5815" /></linearGradient><linearGradient
       id="linearGradient3497"
       inkscape:swatch="solid"><stop
         style="stop-color:#2c3b6a;stop-opacity:1;"
         offset="0"
         id="stop3495" /></linearGradient><linearGradient
       id="linearGradient1042"
       inkscape:swatch="solid"><stop
         style="stop-color:#5c636a;stop-opacity:1;"
         offset="0"
         id="stop1040" /></linearGradient><marker
       style="overflow:visible"
       id="marker13718-6"
       refX="0"
       refY="0"
       orient="auto-start-reverse"
       inkscape:stockid="Arrow3"
       markerWidth="4.2071066"
       markerHeight="7"
       viewBox="0 0 4.2071068 7"
       inkscape:isstock="true"
       inkscape:collect="always"
       preserveAspectRatio="xMidYMid"><path
         style="fill:none;stroke:context-stroke;stroke-width:1;stroke-linecap:round"
         d="M 3,-3 0,0 3,3"
         id="path13716-1"
         transform="rotate(180,0.125,0)"
         sodipodi:nodetypes="ccc" /></marker><linearGradient
       inkscape:collect="always"
       xlink:href="#linearGradient1042"
       id="linearGradient5819"
       x1="995.50635"
       y1="236.89288"
       x2="1214.9479"
       y2="236.89288"
       gradientUnits="userSpaceOnUse" /><linearGradient
       x1="0"
       y1="1"
       x2="1"
       y2="0"
       id="linearGradient-1"><stop
         stop-color="#C8511B"
         offset="0%"
         id="stop13376" /><stop
         stop-color="#FF9900"
         offset="100%"
         id="stop13378" /></linearGradient><marker
       style="overflow:visible"
       id="Arrow3-8"
       refX="0"
       refY="0"
       orient="auto-start-reverse"
       inkscape:stockid="Arrow3"
       markerWidth="4.2071066"
       markerHeight="7"
       viewBox="0 0 4.2071068 7"
       inkscape:isstock="true"
       inkscape:collect="always"
       preserveAspectRatio="xMidYMid"><path
         style="fill:none;stroke:context-stroke;stroke-width:1;stroke-linecap:round"
         d="M 3,-3 0,0 3,3"
         id="arrow3-0"
         transform="rotate(180,0.125,0)"
         sodipodi:nodetypes="ccc" /></marker><marker
       style="overflow:visible"
       id="Arrow3-8-8"
       refX="0"
       refY="0"
       orient="auto-start-reverse"
       inkscape:stockid="Arrow3"
       markerWidth="4.2071066"
       markerHeight="6.9999995"
       viewBox="0 0 4.2071068 7"
       inkscape:isstock="true"
       inkscape:collect="always"
       preserveAspectRatio="xMidYMid"><path
         style="fill:none;stroke:context-stroke;stroke-width:1;stroke-linecap:round"
         d="M 3,-3 0,0 3,3"
         id="arrow3-0-4"
         transform="rotate(180,0.125,0)"
         sodipodi:nodetypes="ccc" /></marker></defs><g
     inkscape:label="Layer 1"
     inkscape:groupmode="layer"
     id="layer1"
     transform="translate(-392.72713,-47.392889)"><g
       style="clip-rule:evenodd;fill-rule:evenodd;image-rendering:optimizeQuality;shape-rendering:geometricPrecision;text-rendering:geometricPrecision"
       id="g2538"
       transform="matrix(0.01201925,0,0,0.01201925,722.88435,49.04551)"><polygon
         fill="#008bc2"
         points="5000,10000 670,7500 670,2500 5000,5000 "
         id="polygon2519" /><polygon
         fill="#056489"
         points="9330,2500 5000,5000 670,2500 5000,0 "
         id="polygon2521" /><polygon
         fill="#09506c"
         points="9330,2500 9330,7500 5000,10000 5000,5000 "
         id="polygon2523" /><polygon
         fill="#f6bd14"
         points="3500,7500 7830,5000 3500,2500 "
         id="polygon2525" /></g><g
       style="fill:#eeeeee;fill-opacity:1"
       id="g4893"
       transform="matrix(6.9693449,0,0,6.9693449,392.72713,169.97375)"><path
         d="M 8,0 C 3.58,0 0,3.58 0,8 c 0,3.54 2.29,6.53 5.47,7.59 0.4,0.07 0.55,-0.17 0.55,-0.38 0,-0.19 -0.01,-0.82 -0.01,-1.49 C 4,14.09 3.48,13.23 3.32,12.78 3.23,12.55 2.84,11.84 2.5,11.65 2.22,11.5 1.82,11.13 2.49,11.12 3.12,11.11 3.57,11.7 3.72,11.94 4.44,13.15 5.59,12.81 6.05,12.6 6.12,12.08 6.33,11.73 6.56,11.53 4.78,11.33 2.92,10.64 2.92,7.58 2.92,6.71 3.23,5.99 3.74,5.43 3.66,5.23 3.38,4.41 3.82,3.31 c 0,0 0.67,-0.21 2.2,0.82 0.64,-0.18 1.32,-0.27 2,-0.27 0.68,0 1.36,0.09 2,0.27 1.53,-1.04 2.2,-0.82 2.2,-0.82 0.44,1.1 0.16,1.92 0.08,2.12 0.51,0.56 0.82,1.27 0.82,2.15 0,3.07 -1.87,3.75 -3.65,3.95 0.29,0.25 0.54,0.73 0.54,1.48 0,1.07 -0.01,1.93 -0.01,2.2 0,0.21 0.15,0.46 0.55,0.38 A 8.01,8.01 0 0 0 16,8 C 16,3.58 12.42,0 8,0"
         id="path4884"
         style="fill:#eeeeee;fill-opacity:1" /></g><g
       id="g33512"
       transform="translate(7,-14.5)"><rect
         style="fill:#252f3e;fill-opacity:1;stroke:url(#linearGradient5819);stroke-width:9.24472;stroke-linecap:round;stroke-linejoin:round;stroke-dasharray:none;stroke-dashoffset:0;stroke-opacity:1;paint-order:markers stroke fill"
         id="rect3493"
         width="217"
         height="184"
         x="996.72711"
         y="144.89288" /><g
         style="fill:#ff9900;fill-opacity:1"
         id="g3040"
         transform="matrix(6.84375,0,0,6.84375,1053.2271,192.39289)"
         inkscape:transform-center-x="5064.375"
         inkscape:transform-center-y="-2415.8438"><path
           d="M 5,0 A 0.5,0.5 0 0 1 5.5,0.5 V 2 h 1 V 0.5 a 0.5,0.5 0 0 1 1,0 V 2 h 1 V 0.5 a 0.5,0.5 0 0 1 1,0 V 2 h 1 V 0.5 a 0.5,0.5 0 0 1 1,0 V 2 A 2.5,2.5 0 0 1 14,4.5 h 1.5 a 0.5,0.5 0 0 1 0,1 H 14 v 1 h 1.5 a 0.5,0.5 0 0 1 0,1 H 14 v 1 h 1.5 a 0.5,0.5 0 0 1 0,1 H 14 v 1 h 1.5 a 0.5,0.5 0 0 1 0,1 H 14 A 2.5,2.5 0 0 1 11.5,14 v 1.5 a 0.5,0.5 0 0 1 -1,0 V 14 h -1 v 1.5 a 0.5,0.5 0 0 1 -1,0 V 14 h -1 v 1.5 a 0.5,0.5 0 0 1 -1,0 V 14 h -1 v 1.5 a 0.5,0.5 0 0 1 -1,0 V 14 A 2.5,2.5 0 0 1 2,11.5 H 0.5 a 0.5,0.5 0 0 1 0,-1 H 2 v -1 H 0.5 a 0.5,0.5 0 0 1 0,-1 H 2 v -1 H 0.5 a 0.5,0.5 0 0 1 0,-1 H 2 v -1 H 0.5 a 0.5,0.5 0 0 1 0,-1 H 2 A 2.5,2.5 0 0 1 4.5,2 V 0.5 A 0.5,0.5 0 0 1 5,0 M 4.5,3 A 1.5,1.5 0 0 0 3,4.5 v 7 A 1.5,1.5 0 0 0 4.5,13 h 7 A 1.5,1.5 0 0 0 13,11.5 v -7 A 1.5,1.5 0 0 0 11.5,3 Z M 5,6.5 A 1.5,1.5 0 0 1 6.5,5 h 3 A 1.5,1.5 0 0 1 11,6.5 v 3 A 1.5,1.5 0 0 1 9.5,11 h -3 A 1.5,1.5 0 0 1 5,9.5 Z M 6.5,6 A 0.5,0.5 0 0 0 6,6.5 v 3 A 0.5,0.5 0 0 0 6.5,10 h 3 A 0.5,0.5 0 0 0 10,9.5 v -3 A 0.5,0.5 0 0 0 9.5,6 Z"
           id="path3031"
           style="fill:#ff9900;fill-opacity:1" /></g><g
         id="g17756"
         transform="matrix(0.15023385,0,0,0.15023385,1001.1411,150.35166)"
         style="fill:#dee2e6;fill-opacity:1">
	<path
   class="st0"
   d="m 86.4,66.4 c 0,3.7 0.4,6.7 1.1,8.9 0.8,2.2 1.8,4.6 3.2,7.2 0.5,0.8 0.7,1.6 0.7,2.3 0,1 -0.6,2 -1.9,3 L 83.2,92 c -0.9,0.6 -1.8,0.9 -2.6,0.9 -1,0 -2,-0.5 -3,-1.4 C 76.2,90 75,88.4 74,86.8 73,85.1 72,83.2 70.9,80.9 63.1,90.1 53.3,94.7 41.5,94.7 c -8.4,0 -15.1,-2.4 -20,-7.2 -4.9,-4.8 -7.4,-11.2 -7.4,-19.2 0,-8.5 3,-15.4 9.1,-20.6 6.1,-5.2 14.2,-7.8 24.5,-7.8 3.4,0 6.9,0.3 10.6,0.8 3.7,0.5 7.5,1.3 11.5,2.2 V 35.6 C 69.8,28 68.2,22.7 65.1,19.6 61.9,16.5 56.5,15 48.8,15 c -3.5,0 -7.1,0.4 -10.8,1.3 -3.7,0.9 -7.3,2 -10.8,3.4 -1.6,0.7 -2.8,1.1 -3.5,1.3 -0.7,0.2 -1.2,0.3 -1.6,0.3 -1.4,0 -2.1,-1 -2.1,-3.1 V 13.3 C 20,11.7 20.2,10.5 20.7,9.8 21.2,9.1 22.1,8.4 23.5,7.7 27,5.9 31.2,4.4 36.1,3.2 41,1.9 46.2,1.3 51.7,1.3 63.6,1.3 72.3,4 77.9,9.4 83.4,14.8 86.2,23 86.2,34 V 66.4 Z M 45.8,81.6 c 3.3,0 6.7,-0.6 10.3,-1.8 3.6,-1.2 6.8,-3.4 9.5,-6.4 1.6,-1.9 2.8,-4 3.4,-6.4 0.6,-2.4 1,-5.3 1,-8.7 v -4.2 c -2.9,-0.7 -6,-1.3 -9.2,-1.7 -3.2,-0.4 -6.3,-0.6 -9.4,-0.6 -6.7,0 -11.6,1.3 -14.9,4 -3.3,2.7 -4.9,6.5 -4.9,11.5 0,4.7 1.2,8.2 3.7,10.6 2.4,2.5 5.9,3.7 10.5,3.7 z m 80.3,10.8 c -1.8,0 -3,-0.3 -3.8,-1 -0.8,-0.6 -1.5,-2 -2.1,-3.9 L 96.7,10.2 c -0.6,-2 -0.9,-3.3 -0.9,-4 0,-1.6 0.8,-2.5 2.4,-2.5 h 9.8 c 1.9,0 3.2,0.3 3.9,1 0.8,0.6 1.4,2 2,3.9 l 16.8,66.2 15.6,-66.2 c 0.5,-2 1.1,-3.3 1.9,-3.9 0.8,-0.6 2.2,-1 4,-1 h 8 c 1.9,0 3.2,0.3 4,1 0.8,0.6 1.5,2 1.9,3.9 l 15.8,67 17.3,-67 c 0.6,-2 1.3,-3.3 2,-3.9 0.8,-0.6 2.1,-1 3.9,-1 h 9.3 c 1.6,0 2.5,0.8 2.5,2.5 0,0.5 -0.1,1 -0.2,1.6 -0.1,0.6 -0.3,1.4 -0.7,2.5 l -24.1,77.3 c -0.6,2 -1.3,3.3 -2.1,3.9 -0.8,0.6 -2.1,1 -3.8,1 h -8.6 c -1.9,0 -3.2,-0.3 -4,-1 -0.8,-0.7 -1.5,-2 -1.9,-4 L 156,23 140.6,87.4 c -0.5,2 -1.1,3.3 -1.9,4 -0.8,0.7 -2.2,1 -4,1 z m 128.5,2.7 c -5.2,0 -10.4,-0.6 -15.4,-1.8 -5,-1.2 -8.9,-2.5 -11.5,-4 -1.6,-0.9 -2.7,-1.9 -3.1,-2.8 -0.4,-0.9 -0.6,-1.9 -0.6,-2.8 v -5.1 c 0,-2.1 0.8,-3.1 2.3,-3.1 0.6,0 1.2,0.1 1.8,0.3 0.6,0.2 1.5,0.6 2.5,1 3.4,1.5 7.1,2.7 11,3.5 4,0.8 7.9,1.2 11.9,1.2 6.3,0 11.2,-1.1 14.6,-3.3 3.4,-2.2 5.2,-5.4 5.2,-9.5 0,-2.8 -0.9,-5.1 -2.7,-7 -1.8,-1.9 -5.2,-3.6 -10.1,-5.2 L 246,52 c -7.3,-2.3 -12.7,-5.7 -16,-10.2 -3.3,-4.4 -5,-9.3 -5,-14.5 0,-4.2 0.9,-7.9 2.7,-11.1 1.8,-3.2 4.2,-6 7.2,-8.2 3,-2.3 6.4,-4 10.4,-5.2 4,-1.2 8.2,-1.7 12.6,-1.7 2.2,0 4.5,0.1 6.7,0.4 2.3,0.3 4.4,0.7 6.5,1.1 2,0.5 3.9,1 5.7,1.6 1.8,0.6 3.2,1.2 4.2,1.8 1.4,0.8 2.4,1.6 3,2.5 0.6,0.8 0.9,1.9 0.9,3.3 v 4.7 c 0,2.1 -0.8,3.2 -2.3,3.2 -0.8,0 -2.1,-0.4 -3.8,-1.2 -5.7,-2.6 -12.1,-3.9 -19.2,-3.9 -5.7,0 -10.2,0.9 -13.3,2.8 -3.1,1.9 -4.7,4.8 -4.7,8.9 0,2.8 1,5.2 3,7.1 2,1.9 5.7,3.8 11,5.5 l 14.2,4.5 c 7.2,2.3 12.4,5.5 15.5,9.6 3.1,4.1 4.6,8.8 4.6,14 0,4.3 -0.9,8.2 -2.6,11.6 -1.8,3.4 -4.2,6.4 -7.3,8.8 -3.1,2.5 -6.8,4.3 -11.1,5.6 -4.5,1.4 -9.2,2.1 -14.3,2.1 z"
   id="path17748"
   style="fill:#dee2e6;fill-opacity:1" />
	<g
   id="g17754"
   style="fill:#dee2e6;fill-opacity:1">
		<path
   class="st1"
   d="M 273.5,143.7 C 240.6,168 192.8,180.9 151.7,180.9 94.1,180.9 42.2,159.6 3,124.2 c -3.1,-2.8 -0.3,-6.6 3.4,-4.4 42.4,24.6 94.7,39.5 148.8,39.5 36.5,0 76.6,-7.6 113.5,-23.2 5.5,-2.5 10.2,3.6 4.8,7.6 z"
   id="path17750"
   style="fill:#dee2e6;fill-opacity:1" />
		<path
   class="st1"
   d="m 287.2,128.1 c -4.2,-5.4 -27.8,-2.6 -38.5,-1.3 -3.2,0.4 -3.7,-2.4 -0.8,-4.5 18.8,-13.2 49.7,-9.4 53.3,-5 3.6,4.5 -1,35.4 -18.6,50.2 -2.7,2.3 -5.3,1.1 -4.1,-1.9 4,-9.9 12.9,-32.2 8.7,-37.5 z"
   id="path17752"
   style="fill:#dee2e6;fill-opacity:1" />
	</g>
</g></g><path
       style="display:inline;fill:none;fill-rule:evenodd;stroke:#c2c2c2;stroke-width:5;stroke-linecap:butt;stroke-linejoin:miter;stroke-dasharray:5, 5;stroke-dashoffset:0;stroke-opacity:1;marker-end:url(#Arrow3-8)"
       d="m 849.12432,112.05432 188.69358,96.03974"
       id="path12518-1"
       inkscape:connector-type="polyline"
       inkscape:connector-curvature="0" /><path
       style="display:inline;fill:none;fill-rule:evenodd;stroke:#c2c2c2;stroke-width:5;stroke-linecap:butt;stroke-linejoin:miter;stroke-dasharray:5, 5;stroke-dashoffset:0;stroke-opacity:1;marker-end:url(#Arrow3-8-8)"
       d="M 521.75417,211.25788 710.4478,115.21814"
       id="path12518-1-7"
       inkscape:connector-type="polyline"
       inkscape:connector-curvature="0" /><path
       style="display:inline;fill:none;fill-rule:evenodd;stroke:#c2c2c2;stroke-width:5;stroke-linecap:butt;stroke-linejoin:miter;stroke-dasharray:none;stroke-opacity:1;marker-start:url(#marker13718-6);marker-end:url(#Arrow3-8-8)"
       d="M 1038.0649,247.15389 520.78244,246.99085"
       id="path12518-1-5"
       inkscape:connector-type="polyline"
       inkscape:connector-curvature="0" /><text
       xml:space="preserve"
       style="font-style:normal;font-variant:normal;font-weight:bold;font-stretch:normal;font-size:20px;font-family:sans-serif;-inkscape-font-specification:'Segoe UI, Bold';font-variant-ligatures:normal;font-variant-caps:normal;font-variant-numeric:normal;font-variant-east-asian:normal;fill:#f6bd14;fill-opacity:1;stroke:none;stroke-width:2;stroke-dasharray:none;stroke-dashoffset:0;stroke-opacity:1;paint-order:markers stroke fill"
       x="429.77911"
       y="418.01199"
       id="text13846-9-9-3-6"
       transform="rotate(-27.400069)"><tspan
         sodipodi:role="line"
         id="tspan41142"
         x="429.77911"
         y="418.01199">Notify</tspan></text><text
       xml:space="preserve"
       style="font-style:normal;font-variant:normal;font-weight:bold;font-stretch:normal;font-size:20px;font-family:sans-serif;-inkscape-font-specification:'Segoe UI, Bold';font-variant-ligatures:normal;font-variant-caps:normal;font-variant-numeric:normal;font-variant-east-asian:normal;fill:#f6bd14;fill-opacity:1;stroke:none;stroke-width:2;stroke-dasharray:none;stroke-dashoffset:0;stroke-opacity:1;paint-order:markers stroke fill"
       x="811.89917"
       y="-299.56708"
       id="text13846-9-9-3-6-0"
       transform="rotate(27.34584)"><tspan
         sodipodi:role="line"
         id="tspan41173"
         x="811.89917"
         y="-299.56708">Launch Runner</tspan></text><text
       xml:space="preserve"
       style="font-style:normal;font-variant:normal;font-weight:bold;font-stretch:normal;font-size:20px;font-family:sans-serif;-inkscape-font-specification:'Segoe UI, Bold';font-variant-ligatures:normal;font-variant-caps:normal;font-variant-numeric:normal;font-variant-east-asian:normal;fill:#f6bd14;fill-opacity:1;stroke:none;stroke-width:2;stroke-dasharray:none;stroke-dashoffset:0;stroke-opacity:1;paint-order:markers stroke fill"
       x="731.11847"
       y="272.22464"
       id="text13846-9-9-3-6-0-7"
       transform="rotate(-0.19244118)"><tspan
         sodipodi:role="line"
         id="tspan41253"
         x="731.11847"
         y="272.22464">Execute Job</tspan></text></g><style
     type="text/css"
     id="style2517">
		polygon{stroke-width:275;stroke-linejoin:round;stroke:hsl(247, 15%, 23%)}
	</style><style
     type="text/css"
     id="style17746">
	.st0{fill:#252F3E;}
	.st1{fill-rule:evenodd;clip-rule:evenodd;fill:#FF9900;}
</style></svg>
